name GIL03_xslow1.mot
datacolumns 153
datarows 4
range 1.27499998 1.29999995
endheader

                time	           pelvis_tx	           pelvis_ty	           pelvis_tz	         pelvis_tilt	         pelvis_list	     pelvis_rotation	       hip_flexion_r	     hip_adduction_r	      hip_rotation_r	        knee_angle_r	       ankle_angle_r	    subtalar_angle_r	         mtp_angle_r	       hip_flexion_l	     hip_adduction_l	      hip_rotation_l	        knee_angle_l	       ankle_angle_l	    subtalar_angle_l	         mtp_angle_l	    lumbar_extension	      lumbar_bending	     lumbar_rotation	     ground_force_vx	     ground_force_vy	     ground_force_vz	     ground_force_px	     ground_force_py	     ground_force_pz	     ground_force_vx	     ground_force_vy	     ground_force_vz	     ground_force_px	     ground_force_py	     ground_force_pz	     ground_torque_x	     ground_torque_y	     ground_torque_z	     ground_torque_x	     ground_torque_y	     ground_torque_z	    ground_marker_px	    ground_marker_py	    ground_marker_pz	    ground_marker_px	    ground_marker_py	    ground_marker_pz	    ground_marker_px	    ground_marker_py	    ground_marker_pz	    ground_marker_px	    ground_marker_py	    ground_marker_pz	    ground_marker_px	    ground_marker_py	    ground_marker_pz	    ground_marker_px	    ground_marker_py	    ground_marker_pz	    ground_marker_px	    ground_marker_py	    ground_marker_pz	    ground_marker_px	    ground_marker_py	    ground_marker_pz	    ground_marker_px	    ground_marker_py	    ground_marker_pz	    ground_marker_px	    ground_marker_py	    ground_marker_pz	    ground_marker_px	    ground_marker_py	    ground_marker_pz	    ground_marker_px	    ground_marker_py	    ground_marker_pz	    ground_marker_px	    ground_marker_py	    ground_marker_pz	    ground_marker_px	    ground_marker_py	    ground_marker_pz	    ground_marker_px	    ground_marker_py	    ground_marker_pz	    ground_marker_px	    ground_marker_py	    ground_marker_pz	    ground_marker_px	    ground_marker_py	    ground_marker_pz	    ground_marker_px	    ground_marker_py	    ground_marker_pz	    ground_marker_px	    ground_marker_py	    ground_marker_pz	    ground_marker_px	    ground_marker_py	    ground_marker_pz	    ground_marker_px	    ground_marker_py	    ground_marker_pz	    ground_marker_px	    ground_marker_py	    ground_marker_pz	    ground_marker_px	    ground_marker_py	    ground_marker_pz	    ground_marker_px	    ground_marker_py	    ground_marker_pz	    ground_marker_px	    ground_marker_py	    ground_marker_pz	    ground_marker_px	    ground_marker_py	    ground_marker_pz	    ground_marker_px	    ground_marker_py	    ground_marker_pz	    ground_marker_px	    ground_marker_py	    ground_marker_pz	    ground_marker_px	    ground_marker_py	    ground_marker_pz	    ground_marker_px	    ground_marker_py	    ground_marker_pz	    ground_marker_px	    ground_marker_py	    ground_marker_pz	    ground_marker_px	    ground_marker_py	    ground_marker_pz	    ground_marker_px	    ground_marker_py	    ground_marker_pz	    ground_marker_px	    ground_marker_py	    ground_marker_pz	    ground_marker_px	    ground_marker_py	    ground_marker_pz	    ground_marker_px	    ground_marker_py	    ground_marker_pz	    ground_marker_px	    ground_marker_py	    ground_marker_pz	
          1.27499998	          2.05481696	          0.90953803	         -0.23287560	          0.92469788	         -0.64831185	          4.30505133	         -1.42470741	          2.93758416	          6.82510662	        -10.77742290	         10.14159107	          0.00000000	          0.00000000	         10.36806870	         -7.20104074	         -4.69806957	        -39.17096710	         12.88954163	          0.00000000	          0.00000000	        -15.81906128	         -0.08049463	         -1.06436193	        -18.04309596	        412.41861158	         -7.67092538	          2.03333105	          0.00000000	         -0.20787614	          0.00000000	          0.00000000	          0.00000000	          1.69144287	          0.00000000	         -0.29953256	          0.00000000	         -0.33125217	          0.00000000	          0.00000000	          0.00000000	          0.00000000	          1.99610019	          0.85140300	         -0.23478761	          2.00343633	          0.83070445	         -0.17054044	          1.98466074	          0.82989514	         -0.28649926	          1.99851787	          0.45658687	         -0.19068006	          2.05281568	          0.46902460	         -0.33954182	          1.92151952	          0.06438244	         -0.18987289	          1.86777043	          0.11171915	         -0.32750869	          2.05481696	          0.90953803	         -0.23287560	          2.06243563	          0.90920180	         -0.13270393	          2.04719830	          0.90987432	         -0.33304727	          1.90047491	          0.94027746	         -0.19424716	          1.89417064	          0.94072759	         -0.24793443	          2.01823020	          0.45356840	         -0.13942279	          2.05668044	          0.47764394	         -0.39321694	          1.97361016	          0.45430064	         -0.23168661	          2.05284548	          0.44907215	         -0.29584330	          1.92375147	          0.06402336	         -0.15143931	          1.86310267	          0.11285010	         -0.36570793	          1.93013406	          0.07837009	         -0.22292371	          1.89270937	          0.12034754	         -0.30630848	          1.94836771	          1.34969056	         -0.21428862	          2.04972243	          1.27652216	         -0.17229767	          2.04345608	          1.27623558	         -0.27970156	          2.03149247	          1.28748536	         -0.23028918	          2.08437848	          1.12015772	         -0.23192549	          2.13272047	          0.62688518	         -0.20998202	          2.15869379	          0.65064359	         -0.30956954	          2.07168913	          0.67366922	         -0.14466617	          2.08045459	          0.68732947	         -0.36075112	          2.06235123	          0.58942741	         -0.14682962	          2.09526539	          0.60098237	         -0.36633149	          1.96380854	          0.18003088	         -0.08340791	          1.87412906	          0.24230072	         -0.42591658	          1.95536995	          0.18893991	         -0.12375388	          1.89400315	          0.23992407	         -0.38761261	          2.03909016	          0.03904651	         -0.19768471	          1.97188389	          0.05806591	         -0.36123604	
          1.28333330	          2.05829477	          0.90948105	         -0.23300466	          0.92630672	         -0.59594923	          4.29350185	         -1.68390656	          2.88364315	          6.67577648	        -10.75987720	         10.24299908	          0.00000000	          0.00000000	         11.05606461	         -7.08042097	         -4.56978226	        -38.69375992	         12.88097954	          0.00000000	          0.00000000	        -15.93519688	         -0.14508106	         -1.00435138	        -18.01533376	        412.71016720	         -7.78745916	          2.03575964	          0.00000000	         -0.20835342	          0.00000000	          0.00000000	          0.00000000	          1.69240210	          0.00000000	         -0.29936749	          0.00000000	         -0.29170590	          0.00000000	          0.00000000	          0.00000000	          0.00000000	          1.99954271	          0.85134083	         -0.23491450	          2.00689316	          0.83059239	         -0.17075635	          1.98816097	          0.82988209	         -0.28672284	          2.00033116	          0.45644251	         -0.19074242	          2.06074572	          0.46983883	         -0.33960354	          1.92170823	          0.06463781	         -0.18986379	          1.88314414	          0.10887826	         -0.32752767	          2.05829477	          0.90948105	         -0.23300466	          2.06587505	          0.90905911	         -0.13284230	          2.05071425	          0.90990299	         -0.33316702	          1.90386367	          0.94020742	         -0.19451007	          1.89752686	          0.94069105	         -0.24818638	          2.01987863	          0.45335850	         -0.13942589	          2.06466985	          0.47851157	         -0.39326575	          1.97680879	          0.45320544	         -0.22959565	          2.05993176	          0.45009872	         -0.29530171	          1.92387903	          0.06428839	         -0.15142661	          1.87839746	          0.10993605	         -0.36571929	          1.93020201	          0.07849186	         -0.22292522	          1.90781105	          0.11797009	         -0.30638289	          1.95231426	          1.34969425	         -0.21451603	          2.05355167	          1.27640378	         -0.17254430	          2.04718304	          1.27611637	         -0.27997616	          2.03526568	          1.28735793	         -0.23054002	          2.08790469	          1.11997890	         -0.23220560	          2.13541174	          0.62619537	         -0.20973209	          2.16422033	          0.65262896	         -0.30930424	          2.07437849	          0.67333466	         -0.14466631	          2.08575797	          0.68844217	         -0.36085263	          2.06534839	          0.58958775	         -0.14608076	          2.10130835	          0.60207283	         -0.36614257	          1.96429145	          0.18007024	         -0.08341920	          1.88667262	          0.23956019	         -0.42580944	          1.95588362	          0.18897878	         -0.12382644	          1.90677834	          0.23750511	         -0.38760218	          2.03915334	          0.03903089	         -0.19766514	          1.98823225	          0.05739643	         -0.36155576	
          1.29166663	          2.06176138	          0.90941989	         -0.23313583	          0.92458153	         -0.54414350	          4.26250935	         -1.93517685	          2.83188558	          6.54124737	        -10.74992371	         10.35286427	          0.00000000	          0.00000000	         11.72197723	         -6.95070028	         -4.43464851	        -38.14553452	         12.81538677	          0.00000000	          0.00000000	        -16.01999474	         -0.22865021	         -0.92095572	        -17.99497227	        412.64649943	         -7.83079221	          2.03806909	          0.00000000	         -0.20881607	          0.00000000	          0.00000000	          0.00000000	          1.69341064	          0.00000000	         -0.29919696	          0.00000000	         -0.24340897	          0.00000000	          0.00000000	          0.00000000	          0.00000000	          2.00294948	          0.85121059	         -0.23501220	          2.01031423	          0.83048385	         -0.17098558	          1.99166369	          0.82986474	         -0.28696576	          2.00214458	          0.45631585	         -0.19081166	          2.06853104	          0.47067139	         -0.33955580	          1.92187595	          0.06488279	         -0.18985322	          1.89867282	          0.10604124	         -0.32761911	          2.06176138	          0.90941989	         -0.23313583	          2.06927037	          0.90891933	         -0.13297901	          2.05425239	          0.90992039	         -0.33329266	          1.90724313	          0.94014627	         -0.19483483	          1.90094411	          0.94064111	         -0.24851938	          2.02152324	          0.45317045	         -0.13943490	          2.07254577	          0.47938532	         -0.39320466	          1.97900200	          0.45323187	         -0.23003806	          2.06748343	          0.45084983	         -0.29555482	          1.92398965	          0.06454347	         -0.15141279	          1.89385593	          0.10703509	         -0.36580369	          1.93023133	          0.07861274	         -0.22292641	          1.92319918	          0.11564992	         -0.30649516	          1.95618534	          1.34966958	         -0.21475731	          2.05735421	          1.27627945	         -0.17279030	          2.05086637	          1.27596140	         -0.28025949	          2.03902149	          1.28721809	         -0.23081894	          2.09143734	          1.11978817	         -0.23245424	          2.13810182	          0.62551850	         -0.20948641	          2.16963458	          0.65455210	         -0.30892566	          2.07704663	          0.67298186	         -0.14463438	          2.09100628	          0.68948787	         -0.36077979	          2.06771851	          0.58923888	         -0.14612605	          2.10750365	          0.60336626	         -0.36607686	          1.96477330	          0.18012047	         -0.08342791	          1.89929926	          0.23681414	         -0.42573407	          1.95644355	          0.18911418	         -0.12375824	          1.91959155	          0.23508526	         -0.38762680	          2.03921914	          0.03901312	         -0.19764097	          2.00470376	          0.05672479	         -0.36182463	
          1.29999995	          2.06521988	          0.90935493	         -0.23327240	          0.92022038	         -0.49199679	          4.21068096	         -2.18106365	          2.78090858	          6.42770672	        -10.74509239	         10.47725773	          0.00000000	          0.00000000	         12.36128044	         -6.81193113	         -4.29330349	        -37.52381134	         12.69596767	          0.00000000	          0.00000000	        -16.03587723	         -0.32306489	         -0.80879319	        -17.92984777	        412.29896537	         -7.79041235	          2.04025293	          0.00000000	         -0.20926959	          0.00000000	          0.00000000	          0.00000000	          1.69447119	          0.00000000	         -0.29902069	          0.00000000	         -0.18747900	          0.00000000	          0.00000000	          0.00000000	          0.00000000	          2.00649333	          0.85126495	         -0.23523590	          2.01370120	          0.83037776	         -0.17123365	          1.99517393	          0.82984340	         -0.28723401	          2.00394917	          0.45620647	         -0.19088864	          2.07615519	          0.47150698	         -0.33940142	          1.92201591	          0.06510588	         -0.18984365	          1.91434383	          0.10322362	         -0.32778257	          2.06521988	          0.90935493	         -0.23327240	          2.07262158	          0.90878189	         -0.13311705	          2.05781817	          0.90992802	         -0.33342776	          1.91061616	          0.94009084	         -0.19522387	          1.90439820	          0.94058347	         -0.24891835	          2.02315974	          0.45300388	         -0.13945232	          2.08029199	          0.48025018	         -0.39303622	          1.97970748	          0.45449910	         -0.23261735	          2.07500887	          0.45148519	         -0.29596075	          1.92408013	          0.06477614	         -0.15140045	          1.90945709	          0.10416628	         -0.36595953	          1.93027747	          0.07872782	         -0.22293630	          1.93884945	          0.11332926	         -0.30664951	          1.95995569	          1.34955072	         -0.21506251	          2.06115508	          1.27611709	         -0.17308554	          2.05453181	          1.27575827	         -0.28056365	          2.04276276	          1.28706968	         -0.23112886	          2.09508038	          1.11958337	         -0.23273624	          2.14079404	          0.62485665	         -0.20926002	          2.17494631	          0.65640104	         -0.30843604	          2.07969999	          0.67259324	         -0.14460054	          2.09622645	          0.69047773	         -0.36056954	          2.06927657	          0.58849859	         -0.14683242	          2.11368275	          0.60461414	         -0.36596459	          1.96526039	          0.18018241	         -0.08343524	          1.91197765	          0.23407696	         -0.42567688	          1.95709026	          0.18937929	         -0.12353604	          1.93246531	          0.23272772	         -0.38760376	          2.03928900	          0.03899457	         -0.19761263	          2.02128029	          0.05607235	         -0.36207247	
